PathFileType	4	(X/Y/Z)	C:/Users/beibeiliu/ov580/test_trc/User2\sequence.20_training_dense_left.trc
DataRate	CameraRate	NumFrames	NumMarkers	Units	OrigDataRate	OrigDataStartFrame	OrigNumFrames
120	120	19	19	mm	120	1	92
Frame#	Time	ThumbCMC			ThumbMCP			ThumbIP			ThumbTip			IndexMCP			IndexPIP			IndexTip			MiddleMCP			MiddlePIP			MiddleTip			RingMCP			RingPIP			RingTip			PinkyMCP			PinkyPIP			PinkyTip			BackHand1			BackHand2			BackHand3	
		X0	Y0	Z0	X1	Y1	Z1	X2	Y2	Z2	X3	Y3	Z3	X4	Y4	Z4	X5	Y5	Z5	X6	Y6	Z6	X7	Y7	Z7	X8	Y8	Z8	X9	Y9	Z9	X10	Y10	Z10	X11	Y11	Z11	X12	Y12	Z12	X13	Y13	Z13	X14	Y14	Z14	X15	Y15	Z15	X16	Y16	Z16	X17	Y17	Z17	X18	Y18	Z18	
0	0	-229.27	7.55273	3.65553	-214.298	10.6343	-21.2857	-196.685	18.7605	-50.8604	-185.461	21.0733	-75.364	-262.233	33.1056	-69.4054	-258.869	40.6065	-94.8757	-259.372	52.9706	-125.148	-288.55	34.854	-71.5122	-294.985	45.1663	-99.415	-303.166	56.8191	-127.057	-311.508	25.0634	-63.406	-320.482	32.1926	-82.3169	-330.717	42.8971	-106.93	-330.881	5.32016	-42.2197	-342.825	11.198	-59.2863	-354.459	25.9791	-77.2779	-301.25	17.7075	-11.8402	-294.732	16.382	25.3763	-265.619	26.5528	-0.951311	
1	0.00833333	-220.688	-5.99957	2.33735	-203.007	-5.8772	-21.6262	-190.5	-6.09758	-51.2507	-174.613	-7.77673	-74.9004	-249.11	16.3644	-73.1683	-245.882	21.2447	-101.677	-244.95	26.9734	-130.673	-273.894	21.2545	-76.7742	-277.972	26.6574	-101.373	-285.677	35.7925	-133.027	-302.719	14.9125	-62.1998	-306.103	20.1499	-86.0828	-316.347	30.8154	-116.021	-316.686	-0.452759	-39.2027	-333.886	9.92637	-62.877	-342.7	20.8594	-76.7755	-290.454	11.1935	-8.21712	-281.673	15.7698	22.1456	-251.774	16.8761	-4.30631	
2	0.0166667	-211.592	-18.918	4.95068	-195.56	-22.8903	-17.8372	-178.182	-25.702	-53.0051	-167.671	-32.32	-68.7591	-233.615	-3.41799	-78.5062	-235.363	-2.81458	-101.662	-229.851	-0.836524	-129.054	-264.85	3.82527	-75.8204	-266.746	5.4491	-105.657	-269.871	10.1894	-135.715	-286.799	0.32362	-63.7706	-296.468	3.4823	-93.1905	-305.069	8.99176	-119.15	-308.856	-7.75369	-40.2291	-322.686	-2.49097	-62.7739	-330.28	7.16508	-81.2474	-280.556	4.58193	-9.927	-269.998	9.04864	19.8809	-241.789	6.16728	-3.06072	
3	0.025	-200.275	-27.2672	1.70135	-186.837	-34.6983	-17.9784	-169.749	-42.5077	-47.162	-156.316	-51.2258	-62.0056	-226.285	-22.5405	-78.2113	-220.67	-25.4087	-104.917	-224.756	-27.1494	-128.334	-252.009	-15.4379	-76.3936	-256.225	-17.7739	-109.553	-261.235	-17.8135	-138.609	-276.904	-16.1063	-68.4968	-286.529	-17.3906	-93.943	-290.835	-16.8753	-117.78	-295.11	-22.2979	-42.2763	-307.805	-18.3677	-65.7164	-318.233	-7.98942	-81.9095	-269.714	-5.9162	-15.3121	-264.245	4.00665	16.5149	-231.077	-3.46415	-8.26348	
4	0.0333333	-195.97	-35.0406	8.77804	-176.383	-44.6376	-15.0687	-156.821	-55.9747	-39.249	-143.12	-66.8478	-55.4028	-212.79	-39.4835	-72.8404	-210.931	-45.9026	-97.3959	-207.685	-51.9324	-124.561	-238.992	-33.0963	-81.9031	-242.142	-41.5438	-111.195	-246.467	-45.3727	-136.583	-271.208	-32.0234	-67.5269	-274.604	-37.2974	-96.3475	-282.424	-42.3265	-122.743	-291.637	-33.0853	-44.0147	-296.877	-34.7988	-66.2742	-308.307	-25.4001	-85.0861	-260.959	-12.9935	-16.9578	-250.38	-1.85118	11.0153	-222.984	-13.1494	-8.98978	
5	0.0416667	-191.795	-36.2306	7.3599	-172.394	-45.9725	-10.0179	-153.334	-59.8407	-36.9446	-135.863	-71.4699	-49.2641	-205.067	-51.992	-68.0823	-205.025	-63.5114	-96.8627	-198.848	-72.7392	-118.574	-236.315	-48.9374	-78.7484	-234.619	-60.4527	-105.234	-240.465	-71.3444	-133.33	-265.285	-47.2337	-66.7177	-270.102	-57.603	-93.8757	-274.727	-67.4827	-116.852	-283.653	-45.3133	-43.7293	-290.977	-51.143	-63.8551	-303.879	-48.8835	-86.0546	-253.449	-20.3216	-15.6515	-250.324	-5.3199	10.3065	-216.123	-17.6757	-8.76716	
6	0.05	-191.852	-21.7815	7.3782	-170.512	-29.5601	-10.1913	-152.221	-43.3189	-30.2246	-135.263	-53.094	-46.0028	-205.513	-56.1867	-69.6366	-196.798	-67.7617	-86.8776	-193.658	-81.9841	-111.452	-234.372	-60.1712	-75.2207	-229.233	-74.534	-96.3785	-230.27	-91.7361	-125.935	-257.614	-60.4956	-61.2587	-263.171	-76.8351	-84.8464	-263.417	-93.8715	-112.147	-283.269	-60.4086	-39.3723	-291.298	-71.5301	-63.3949	-300.22	-75.5271	-82.7634	-255.906	-26.5738	-15.2704	-259.262	-5.24765	8.50807	-224.901	-11.3376	-10.1754	
7	0.0583333	-204.61	4.56042	8.32528	-181.358	0.873114	-10.0706	-156.554	-7.88648	-36.8869	-137.61	-13.494	-47.8887	-204.605	-44.2127	-66.6595	-191.305	-59.2299	-86.9524	-186.721	-74.0706	-105.475	-229.616	-58.8885	-70.7369	-222.647	-76.4133	-90.5774	-213.638	-97.6314	-117.943	-252.594	-66.3697	-57.5108	-254.759	-88.2273	-76.4262	-249.769	-106.787	-96.8868	-277.565	-70.7296	-36.0784	-279.829	-85.4336	-52.6585	-288.445	-99.454	-76.0038	-267.296	-28.3658	-14.6978	-272.062	-5.96806	4.64498	-235.505	-0.340964	-14.68	
8	0.0666667	-222.687	25.8715	3.28391	-200.458	29.0844	-15.8291	-176.803	25.8818	-37.7957	-154.943	25.9665	-54.5247	-207.652	-23.3791	-64.0665	-190.085	-37.6636	-85.9111	-173.449	-50.4124	-104.951	-226.28	-44.883	-65.8677	-212.871	-67.3831	-88.7025	-199.003	-84.4834	-108.784	-244.714	-63.6426	-54.2607	-237.974	-83.7543	-70.0399	-223.585	-102.219	-91.1536	-265.059	-70.1217	-26.8805	-262.124	-87.9978	-45.0396	-265.977	-106.389	-65.1476	-267.728	-26.3876	-15.1602	-284.125	-5.45597	6.94276	-251.239	8.59799	-13.95	
9	0.075	-245.939	41.4278	3.16856	-224.033	55.7001	-18.7241	-201.071	60.7924	-40.3132	-181.211	61.1811	-52.7546	-210.625	-1.7395	-63.7893	-194.306	-11.8053	-79.9577	-174.453	-21.1577	-100.135	-220.372	-28.7117	-65.4738	-201.598	-42.4591	-84.1122	-183.046	-58.8272	-102.421	-231.476	-49.9172	-52.6852	-221.261	-69.5206	-63.9614	-200.641	-84.2541	-82.6526	-246.878	-60.1656	-24.0331	-239.443	-83.5632	-40.3708	-234.769	-99.3435	-57.161	-270.105	-24.7867	-13.2352	-289.57	-9.27494	3.48613	-265.663	17.0567	-14.8214	
10	0.0833333	-266.128	50.4275	-2.63644	-249.843	66.2574	-21.2542	-226.889	77.0174	-44.7259	-210.203	88.4379	-59.1045	-217.169	14.6652	-64.6988	-197.911	14.9443	-81.279	-175.336	8.25261	-101.314	-217.546	-13.4588	-65.9357	-196.272	-20.2004	-81.86	-172.821	-33.5699	-99.3519	-223.021	-39.9553	-46.5065	-204.663	-50.3844	-61.2268	-180.095	-59.2974	-80.3465	-232.556	-48.8148	-22.2205	-217.861	-68.1177	-36.8188	-206.265	-83.0122	-51.3007	-267.475	-21.6981	-13.122	-289.523	-12.6702	2.65248	-277.144	16.3821	-17.6904	
11	0.0916667	-282.914	47.0882	-3.26134	-274.561	70.6772	-26.4715	-255.882	85.8661	-50.8861	-240.602	96.6461	-63.7898	-226.958	28.852	-69.5464	-207.116	32.8892	-87.8982	-187.995	32.6337	-103.779	-219.403	0.914869	-66.1181	-193.626	-2.34854	-85.4966	-166.768	-4.87415	-105.116	-214.898	-23.046	-46.5151	-193.09	-26.2687	-62.2648	-168.897	-32.4621	-77.422	-215.892	-35.9389	-26.6488	-198.629	-45.4505	-34.797	-181.326	-62.1467	-48.9627	-261.01	-20.6829	-16.5195	-286.762	-20.4691	3.14476	-281.202	15.6747	-21.1284	
12	0.1	-293.586	37.5184	-12.4421	-290.502	58.9915	-31.8352	-282.522	81.3422	-59.1507	-273.652	96.1688	-75.3489	-239.545	32.4249	-77.9515	-224.845	40.7725	-96.9628	-206.949	44.4414	-113.991	-222.948	9.68349	-73.8227	-197.754	11.6009	-93.6831	-175.35	13.2182	-110.987	-209.02	-12.4332	-51.3556	-187.779	-8.22214	-70.5455	-164.154	-7.59787	-85.4331	-207.4	-22.5934	-24.0324	-186.665	-26.6401	-36.1663	-166.284	-36.8127	-53.6393	-253.724	-15.3495	-19.4297	-279.813	-23.8591	4.31336	-284.942	5.58787	-21.3258	
13	0.108333	-306.363	26.5726	-12.1633	-311.597	46.3924	-39.0172	-307.345	65.3404	-67.6208	-301.822	81.7705	-85.1958	-254.808	22.3166	-81.7496	-245.414	31.4145	-104.669	-229.102	40.3502	-130.367	-232.005	6.88351	-82.8068	-213.707	14.5194	-105.388	-194.559	20.2987	-125.628	-213.009	-4.44148	-62.2568	-195.745	-0.290274	-77.3609	-175.49	6.17769	-98.2358	-204.435	-11.0055	-36.985	-180.91	-12.1111	-48.7213	-165.602	-16.3857	-64.5872	-250.543	-16.7244	-21.512	-271.215	-29.3487	2.25898	-289.201	-6.97919	-21.9158	
14	0.116667	-316.012	14.9849	-12.2924	-326.722	30.8495	-34.718	-331.342	47.8253	-65.9834	-328.606	61.2222	-86.6679	-273.957	8.18203	-89.8473	-268.742	14.1962	-113.993	-260.029	22.1052	-141.06	-252.578	-3.33738	-87.5697	-238.973	2.37745	-116.27	-219.417	8.83898	-145.573	-227.657	-8.80192	-71.7402	-211.914	-5.36248	-93.3888	-198.922	1.69936	-116.226	-209.118	-10.2604	-45.7694	-193.803	-8.54883	-59.9118	-175.115	-14.2665	-81.3013	-252.043	-22.8195	-21.1938	-267.858	-29.1892	3.54667	-290.891	-15.5498	-21.519	
15	0.125	-322.029	9.65874	-9.13114	-335.834	21.625	-33.5925	-349.08	32.9014	-66.0474	-353.613	45.9003	-83.0591	-297.444	-7.99365	-88.7133	-298.542	-5.88073	-116.686	-289.96	-4.1232	-147.654	-270.492	-20.2177	-88.8755	-266	-18.2215	-124.971	-255.139	-15.8228	-152.262	-244.83	-21.3878	-76.52	-236.058	-20.4478	-102.25	-224.274	-18.4688	-129.692	-222.248	-16.3497	-55.3685	-210.728	-16.2904	-76.1635	-197.953	-23.5417	-97.8034	-260.231	-24.97	-26.866	-269.386	-31.3508	4.91237	-299.442	-22.6119	-20.9792	
16	0.133333	-327.808	7.34457	-4.64866	-345.847	17.3421	-32.023	-359.457	26.7096	-58.3464	-368.188	35.2427	-82.6949	-313.549	-19.6352	-83.5693	-316.121	-21.4813	-115.678	-316.825	-22.2273	-142.174	-286.691	-32.2081	-86.8323	-285.243	-36.6048	-121.898	-281.059	-36.759	-152.442	-263.957	-32.8531	-81.147	-254.253	-38.947	-107.226	-248.707	-41.3427	-138.14	-236.999	-26.5987	-63.5818	-227.308	-30.4966	-83.2459	-218.354	-39.4832	-104.436	-268.886	-31.2515	-23.6058	-274.948	-34.8518	3.44032	-305.008	-26.9264	-17.4792	
17	0.141667	-332.258	11.7347	-4.73137	-347.044	23.2398	-25.2561	-363.921	32.2701	-54.0706	-375.063	40.9553	-76.9763	-328.852	-19.6793	-79.7252	-332.156	-24.5385	-111.778	-335.541	-25.831	-137.592	-303.31	-37.2014	-89.4427	-305.842	-40.993	-118.811	-302.082	-45.9385	-154.255	-275.619	-41.149	-80.4774	-272.277	-48.0037	-104.255	-274.434	-51.1362	-136.456	-252.219	-33.4696	-63.5287	-241.627	-43.5144	-87.6376	-237.822	-52.5209	-105.185	-279.478	-33.6615	-26.5732	-279.024	-35.0402	3.68601	-310.728	-25.0071	-13.2199	
18	0.15	-330.375	26.9444	-4.19261	-340.269	41	-23.2092	-358.622	55.5089	-54.7584	-362.149	63.9406	-75.084	-335.585	-5.06405	-77.2567	-344.928	-7.96333	-106.508	-346.612	-11.1445	-135.233	-318.645	-27.4197	-83.9811	-321.61	-34.6901	-119.721	-322.326	-38.2757	-146.075	-292.774	-38.1853	-77.0967	-291.991	-48.2046	-105.181	-296.077	-52.6622	-136.355	-266.416	-37.83	-63.3728	-264.755	-48.9303	-89.0507	-265.408	-59.4874	-105.894	-291.503	-29.2771	-23.8475	-290.871	-32.5738	7.86475	-317.054	-12.5551	-10.6134	
